{
  "accessors": [
    {
      "bufferView": 2,
      "componentType": 5126,
      "count": 126,
      "max": [
        -0.27539899945259094,
        0.19151100516319275,
        0.017012199386954308
      ],
      "min": [
        -0.4482940137386322,
        0.041059300303459167,
        -0.012790700420737267
      ],
      "type": "VEC3"
    },
    {
      "bufferView": 2,
      "byteOffset": 1512,
      "componentType": 5126,
      "count": 126,
      "max": [
        0.99752497673034668,
        0.85624867677688599,
        1
      ],
      "min": [
        -0.99776923656463623,
        -0.98578733205795288,
        -1
      ],
      "type": "VEC3"
    },
    {
      "bufferView": 3,
      "componentType": 5126,
      "count": 126,
      "max": [
        0.98578733205795288,
        0.99744260311126709,
        2.5938522441038003e-08,
        1
      ],
      "min": [
        -1,
        -0.99776923656463623,
        -3.7533209251705557e-07,
        -1
      ],
      "type": "VEC4"
    },
    {
      "bufferView": 1,
      "componentType": 5126,
      "count": 126,
      "max": [
        0.39033401012420654,
        0.81039899587631226
      ],
      "min": [
        0.23267500102519989,
        0.67778599262237549
      ],
      "type": "VEC2"
    },
    {
      "bufferView": 0,
      "componentType": 5125,
      "count": 324,
      "max": [
        125
      ],
      "min": [
        0
      ],
      "type": "SCALAR"
    },
    {
      "bufferView": 2,
      "byteOffset": 3024,
      "componentType": 5126,
      "count": 294,
      "max": [
        -0.30681899189949036,
        0.38233500719070435,
        0.046889599412679672
      ],
      "min": [
        -0.59168899059295654,
        0.26051801443099976,
        -0.042668700218200684
      ],
      "type": "VEC3"
    },
    {
      "bufferView": 2,
      "byteOffset": 6552,
      "componentType": 5126,
      "count": 294,
      "max": [
        0.90353888273239136,
        0.97424066066741943,
        0.99048733711242676
      ],
      "min": [
        -0.9045339822769165,
        -1,
        -0.99048733711242676
      ],
      "type": "VEC3"
    },
    {
      "bufferView": 3,
      "byteOffset": 2016,
      "componentType": 5126,
      "count": 294,
      "max": [
        1,
        0.99840134382247925,
        1,
        1
      ],
      "min": [
        -0.78541350364685059,
        -0.81649661064147949,
        -1,
        -1
      ],
      "type": "VEC4"
    },
    {
      "bufferView": 1,
      "byteOffset": 1008,
      "componentType": 5126,
      "count": 294,
      "max": [
        0.91854500770568848,
        0.80741697549819946
      ],
      "min": [
        0.37536400556564331,
        0.70944100618362427
      ],
      "type": "VEC2"
    },
    {
      "bufferView": 0,
      "byteOffset": 1296,
      "componentType": 5125,
      "count": 882,
      "max": [
        293
      ],
      "min": [
        0
      ],
      "type": "SCALAR"
    },
    {
      "bufferView": 2,
      "byteOffset": 10080,
      "componentType": 5126,
      "count": 184,
      "max": [
        -0.48301398754119873,
        0.38233500719070435,
        0.038048498332500458
      ],
      "min": [
        -0.77654200792312622,
        0.32446900010108948,
        -0.033827301114797592
      ],
      "type": "VEC3"
    },
    {
      "bufferView": 2,
      "byteOffset": 12288,
      "componentType": 5126,
      "count": 184,
      "max": [
        1,
        1,
        1
      ],
      "min": [
        -1,
        -1,
        -1
      ],
      "type": "VEC3"
    },
    {
      "bufferView": 3,
      "byteOffset": 6720,
      "componentType": 5126,
      "count": 184,
      "max": [
        1,
        1,
        1,
        1
      ],
      "min": [
        -1,
        -0.96603113412857056,
        -0.56743305921554565,
        1
      ],
      "type": "VEC4"
    },
    {
      "bufferView": 1,
      "byteOffset": 3360,
      "componentType": 5126,
      "count": 184,
      "max": [
        0.91680997610092163,
        0.7063019871711731
      ],
      "min": [
        0.45072001218795776,
        0.3401390016078949
      ],
      "type": "VEC2"
    },
    {
      "bufferView": 0,
      "byteOffset": 4824,
      "componentType": 5125,
      "count": 480,
      "max": [
        183
      ],
      "min": [
        0
      ],
      "type": "SCALAR"
    },
    {
      "bufferView": 2,
      "byteOffset": 14496,
      "componentType": 5126,
      "count": 490,
      "max": [
        -0.68796199560165405,
        0.39664599299430847,
        0.074537903070449829
      ],
      "min": [
        -0.94709700345993042,
        0.30073198676109314,
        -0.070316001772880554
      ],
      "type": "VEC3"
    },
    {
      "bufferView": 2,
      "byteOffset": 20376,
      "componentType": 5126,
      "count": 490,
      "max": [
        1,
        1,
        1
      ],
      "min": [
        -1,
        -1,
        -1
      ],
      "type": "VEC3"
    },
    {
      "bufferView": 3,
      "byteOffset": 9664,
      "componentType": 5126,
      "count": 490,
      "max": [
        1,
        1,
        1,
        1
      ],
      "min": [
        -0.99999982118606567,
        -1,
        -1,
        -1
      ],
      "type": "VEC4"
    },
    {
      "bufferView": 1,
      "byteOffset": 4832,
      "componentType": 5126,
      "count": 490,
      "max": [
        0.91903698444366455,
        0.99544697999954224
      ],
      "min": [
        0.0033391800243407488,
        0.3686479926109314
      ],
      "type": "VEC2"
    },
    {
      "bufferView": 0,
      "byteOffset": 6744,
      "componentType": 5125,
      "count": 1314,
      "max": [
        489
      ],
      "min": [
        0
      ],
      "type": "SCALAR"
    },
    {
      "bufferView": 2,
      "byteOffset": 26256,
      "componentType": 5126,
      "count": 343,
      "max": [
        -0.41356199979782104,
        0.26857501268386841,
        0.061664201319217682
      ],
      "min": [
        -0.96607202291488647,
        -0.39664599299430847,
        -0.05744209885597229
      ],
      "type": "VEC3"
    },
    {
      "bufferView": 2,
      "byteOffset": 30372,
      "componentType": 5126,
      "count": 343,
      "max": [
        1,
        1,
        1
      ],
      "min": [
        -1,
        -1,
        -1
      ],
      "type": "VEC3"
    },
    {
      "bufferView": 3,
      "byteOffset": 17504,
      "componentType": 5126,
      "count": 343,
      "max": [
        1,
        1,
        0.92816120386123657,
        1
      ],
      "min": [
        -0.99945670366287231,
        -1,
        -0.92816507816314697,
        1
      ],
      "type": "VEC4"
    },
    {
      "bufferView": 1,
      "byteOffset": 8752,
      "componentType": 5126,
      "count": 343,
      "max": [
        0.91304498910903931,
        0.98881399631500244
      ],
      "min": [
        0.093210600316524506,
        0.82225102186203003
      ],
      "type": "VEC2"
    },
    {
      "bufferView": 0,
      "byteOffset": 12000,
      "componentType": 5125,
      "count": 1188,
      "max": [
        342
      ],
      "min": [
        0
      ],
      "type": "SCALAR"
    },
    {
      "bufferView": 2,
      "byteOffset": 34488,
      "componentType": 5126,
      "count": 62,
      "max": [
        -0.77623802423477173,
        0.26547899842262268,
        -0.052043400704860687
      ],
      "min": [
        -0.91276699304580688,
        0.17041300237178802,
        -0.072995901107788086
      ],
      "type": "VEC3"
    },
    {
      "bufferView": 2,
      "byteOffset": 35232,
      "componentType": 5126,
      "count": 62,
      "max": [
        0.97814774513244629,
        0.9945218563079834,
        7.7086372129997471e-07
      ],
      "min": [
        -0.97814774513244629,
        -0.9945218563079834,
        -1
      ],
      "type": "VEC3"
    },
    {
      "bufferView": 3,
      "byteOffset": 22992,
      "componentType": 5126,
      "count": 62,
      "max": [
        0.50128167867660522,
        0.86559098958969116,
        1,
        1
      ],
      "min": [
        -3.2199929478338163e-07,
        -0.00010766249033622444,
        -1,
        1
      ],
      "type": "VEC4"
    },
    {
      "bufferView": 1,
      "byteOffset": 11496,
      "componentType": 5126,
      "count": 62,
      "max": [
        0.99249798059463501,
        0.49488100409507751
      ],
      "min": [
        0.9204069972038269,
        0.33991798758506775
      ],
      "type": "VEC2"
    },
    {
      "bufferView": 0,
      "byteOffset": 16752,
      "componentType": 5125,
      "count": 150,
      "max": [
        61
      ],
      "min": [
        0
      ],
      "type": "SCALAR"
    },
    {
      "bufferView": 2,
      "byteOffset": 35976,
      "componentType": 5126,
      "count": 371,
      "max": [
        -0.19545699656009674,
        0.38335299491882324,
        0.055073801428079605
      ],
      "min": [
        -0.93963497877120972,
        0.23990200459957123,
        -0.050852499902248383
      ],
      "type": "VEC3"
    },
    {
      "bufferView": 2,
      "byteOffset": 40428,
      "componentType": 5126,
      "count": 371,
      "max": [
        0.90453070402145386,
        1,
        0.96420365571975708
      ],
      "min": [
        -0.95471566915512085,
        -0.72821599245071411,
        -0.96420365571975708
      ],
      "type": "VEC3"
    },
    {
      "bufferView": 3,
      "byteOffset": 23984,
      "componentType": 5126,
      "count": 371,
      "max": [
        1,
        0.9978712797164917,
        1,
        1
      ],
      "min": [
        -1,
        -0.74319624900817871,
        -1,
        -1
      ],
      "type": "VEC4"
    },
    {
      "bufferView": 1,
      "byteOffset": 11992,
      "componentType": 5126,
      "count": 371,
      "max": [
        0.98253601789474487,
        0.94462001323699951
      ],
      "min": [
        0.01685049943625927,
        0.30294999480247498
      ],
      "type": "VEC2"
    },
    {
      "bufferView": 0,
      "byteOffset": 17352,
      "componentType": 5125,
      "count": 1122,
      "max": [
        370
      ],
      "min": [
        0
      ],
      "type": "SCALAR"
    },
    {
      "bufferView": 2,
      "byteOffset": 44880,
      "componentType": 5126,
      "count": 1395,
      "max": [
        -0.19689600169658661,
        0.38111600279808044,
        0.074537903070449829
      ],
      "min": [
        -1,
        -0.37371900677680969,
        -0.074537903070449829
      ],
      "type": "VEC3"
    },
    {
      "bufferView": 2,
      "byteOffset": 61620,
      "componentType": 5126,
      "count": 1395,
      "max": [
        1,
        1,
        1
      ],
      "min": [
        -1,
        -1,
        -1
      ],
      "type": "VEC3"
    },
    {
      "bufferView": 3,
      "byteOffset": 29920,
      "componentType": 5126,
      "count": 1395,
      "max": [
        1,
        1,
        1,
        1
      ],
      "min": [
        -1,
        -1,
        -1,
        -1
      ],
      "type": "VEC4"
    },
    {
      "bufferView": 1,
      "byteOffset": 14960,
      "componentType": 5126,
      "count": 1395,
      "max": [
        2.3345499038696289,
        0.8563770055770874
      ],
      "min": [
        0.0134765999391675,
        -0.26734301447868347
      ],
      "type": "VEC2"
    },
    {
      "bufferView": 0,
      "byteOffset": 21840,
      "componentType": 5125,
      "count": 4455,
      "max": [
        1394
      ],
      "min": [
        0
      ],
      "type": "SCALAR"
    },
    {
      "bufferView": 2,
      "byteOffset": 78360,
      "componentType": 5126,
      "count": 842,
      "max": [
        1,
        0.39595299959182739,
        0.055155500769615173
      ],
      "min": [
        -0.19545699656009674,
        0.24646900594234467,
        -0.050934098660945892
      ],
      "type": "VEC3"
    },
    {
      "bufferView": 2,
      "byteOffset": 88464,
      "componentType": 5126,
      "count": 842,
      "max": [
        1,
        1,
        1
      ],
      "min": [
        -1,
        -1,
        -1
      ],
      "type": "VEC3"
    },
    {
      "bufferView": 3,
      "byteOffset": 52240,
      "componentType": 5126,
      "count": 842,
      "max": [
        1,
        1,
        1,
        1
      ],
      "min": [
        -1,
        -1,
        -1,
        -1
      ],
      "type": "VEC4"
    },
    {
      "bufferView": 1,
      "byteOffset": 26120,
      "componentType": 5126,
      "count": 842,
      "max": [
        0.99669098854064941,
        0.99491399526596069
      ],
      "min": [
        0.0024946699850261211,
        0.0032335799187421799
      ],
      "type": "VEC2"
    },
    {
      "bufferView": 0,
      "byteOffset": 39660,
      "componentType": 5125,
      "count": 2568,
      "max": [
        841
      ],
      "min": [
        0
      ],
      "type": "SCALAR"
    }
  ],
  "asset": {
    "extras": {
      "author": "ARIA (https://sketchfab.com/I_Live)",
      "license": "CC-BY-4.0 (http://creativecommons.org/licenses/by/4.0/)",
      "source": "https://sketchfab.com/3d-models/p08-luger-artillery-model-75c8228009994d428213e4988a704412",
      "title": "P08 Luger Artillery Model"
    },
    "generator": "Sketchfab-6.0.0",
    "version": "2.0"
  },
  "bufferViews": [
    {
      "buffer": 0,
      "byteLength": 49932,
      "byteOffset": 0,
      "name": "floatBufferViews",
      "target": 34963
    },
    {
      "buffer": 0,
      "byteLength": 32856,
      "byteOffset": 49932,
      "byteStride": 8,
      "name": "floatBufferViews",
      "target": 34962
    },
    {
      "buffer": 0,
      "byteLength": 98568,
      "byteOffset": 82788,
      "byteStride": 12,
      "name": "floatBufferViews",
      "target": 34962
    },
    {
      "buffer": 0,
      "byteLength": 65712,
      "byteOffset": 181356,
      "byteStride": 16,
      "name": "floatBufferViews",
      "target": 34962
    }
  ],
  "buffers": [
    {
      "byteLength": 247068,
      "uri": "scene.bin"
    }
  ],
  "images": [
    {
      "uri": "textures/UV_P08Luger_Barrel_ArtilleryModel_baseColor.png"
    },
    {
      "uri": "textures/UV_P08Luger_Barrel_ArtilleryModel_metallicRoughness.png"
    },
    {
      "uri": "textures/UV_P08Luger_Barrel_ArtilleryModel_normal.png"
    },
    {
      "uri": "textures/P08_LugerUV_P08Luger_Body_baseColor.png"
    },
    {
      "uri": "textures/P08_LugerUV_P08Luger_Body_metallicRoughness.png"
    },
    {
      "uri": "textures/P08_LugerUV_P08Luger_Body_normal.png"
    }
  ],
  "materials": [
    {
      "doubleSided": true,
      "name": "UV_P08Luger_Barrel_ArtilleryModel",
      "normalTexture": {
        "index": 2,
        "scale": 1,
        "texCoord": 0
      },
      "pbrMetallicRoughness": {
        "baseColorFactor": [
          1,
          1,
          1,
          1
        ],
        "baseColorTexture": {
          "index": 0,
          "texCoord": 0
        },
        "metallicFactor": 1,
        "metallicRoughnessTexture": {
          "index": 1,
          "texCoord": 0
        },
        "roughnessFactor": 1
      }
    },
    {
      "doubleSided": true,
      "name": "P08_LugerUV_P08Luger_Body",
      "normalTexture": {
        "index": 5,
        "scale": 1,
        "texCoord": 0
      },
      "pbrMetallicRoughness": {
        "baseColorFactor": [
          1,
          1,
          1,
          1
        ],
        "baseColorTexture": {
          "index": 3,
          "texCoord": 0
        },
        "metallicFactor": 1,
        "metallicRoughnessTexture": {
          "index": 4,
          "texCoord": 0
        },
        "roughnessFactor": 1
      }
    }
  ],
  "meshes": [
    {
      "name": "defaultMaterial",
      "primitives": [
        {
          "attributes": {
            "NORMAL": 1,
            "POSITION": 0,
            "TANGENT": 2,
            "TEXCOORD_0": 3
          },
          "indices": 4,
          "material": 1,
          "mode": 4
        }
      ]
    },
    {
      "name": "defaultMaterial",
      "primitives": [
        {
          "attributes": {
            "NORMAL": 6,
            "POSITION": 5,
            "TANGENT": 7,
            "TEXCOORD_0": 8
          },
          "indices": 9,
          "material": 1,
          "mode": 4
        }
      ]
    },
    {
      "name": "defaultMaterial",
      "primitives": [
        {
          "attributes": {
            "NORMAL": 11,
            "POSITION": 10,
            "TANGENT": 12,
            "TEXCOORD_0": 13
          },
          "indices": 14,
          "material": 1,
          "mode": 4
        }
      ]
    },
    {
      "name": "defaultMaterial",
      "primitives": [
        {
          "attributes": {
            "NORMAL": 16,
            "POSITION": 15,
            "TANGENT": 17,
            "TEXCOORD_0": 18
          },
          "indices": 19,
          "material": 1,
          "mode": 4
        }
      ]
    },
    {
      "name": "defaultMaterial",
      "primitives": [
        {
          "attributes": {
            "NORMAL": 21,
            "POSITION": 20,
            "TANGENT": 22,
            "TEXCOORD_0": 23
          },
          "indices": 24,
          "material": 1,
          "mode": 4
        }
      ]
    },
    {
      "name": "defaultMaterial",
      "primitives": [
        {
          "attributes": {
            "NORMAL": 26,
            "POSITION": 25,
            "TANGENT": 27,
            "TEXCOORD_0": 28
          },
          "indices": 29,
          "material": 1,
          "mode": 4
        }
      ]
    },
    {
      "name": "defaultMaterial",
      "primitives": [
        {
          "attributes": {
            "NORMAL": 31,
            "POSITION": 30,
            "TANGENT": 32,
            "TEXCOORD_0": 33
          },
          "indices": 34,
          "material": 1,
          "mode": 4
        }
      ]
    },
    {
      "name": "defaultMaterial",
      "primitives": [
        {
          "attributes": {
            "NORMAL": 36,
            "POSITION": 35,
            "TANGENT": 37,
            "TEXCOORD_0": 38
          },
          "indices": 39,
          "material": 1,
          "mode": 4
        }
      ]
    },
    {
      "name": "defaultMaterial",
      "primitives": [
        {
          "attributes": {
            "NORMAL": 41,
            "POSITION": 40,
            "TANGENT": 42,
            "TEXCOORD_0": 43
          },
          "indices": 44,
          "material": 0,
          "mode": 4
        }
      ]
    }
  ],
  "nodes": [
    {
      "children": [
        1
      ],
      "name": "RootNode (gltf orientation matrix)",
      "rotation": [
        -0.70710678118654746,
        -0,
        -0,
        0.70710678118654757
      ]
    },
    {
      "children": [
        2
      ],
      "name": "RootNode (model correction matrix)"
    },
    {
      "children": [
        3,
        5,
        7,
        9,
        11,
        13,
        15,
        17,
        19
      ],
      "matrix": [
        1,
        0,
        0,
        0,
        0,
        -4.3711390063094768e-08,
        0.999999999999999,
        0,
        0,
        -0.999999999999999,
        -4.3711390063094768e-08,
        0,
        0,
        0,
        0,
        1
      ],
      "name": "Collada visual scene group"
    },
    {
      "children": [
        4
      ],
      "name": "Luger_P08_Trigger"
    },
    {
      "mesh": 0,
      "name": "defaultMaterial"
    },
    {
      "children": [
        6
      ],
      "name": "Luger_P08_ToggleBolt03"
    },
    {
      "mesh": 1,
      "name": "defaultMaterial"
    },
    {
      "children": [
        8
      ],
      "name": "Luger_P08_ToggleBolt02"
    },
    {
      "mesh": 2,
      "name": "defaultMaterial"
    },
    {
      "children": [
        10
      ],
      "name": "Luger_P08_ToggleBolt01"
    },
    {
      "mesh": 3,
      "name": "defaultMaterial"
    },
    {
      "children": [
        12
      ],
      "name": "Luger_P08_Magazine"
    },
    {
      "mesh": 4,
      "name": "defaultMaterial"
    },
    {
      "children": [
        14
      ],
      "name": "Luger_P08_Body03"
    },
    {
      "mesh": 5,
      "name": "defaultMaterial"
    },
    {
      "children": [
        16
      ],
      "name": "Luger_P08_Body02"
    },
    {
      "mesh": 6,
      "name": "defaultMaterial"
    },
    {
      "children": [
        18
      ],
      "name": "Luger_P08_Body01"
    },
    {
      "mesh": 7,
      "name": "defaultMaterial"
    },
    {
      "children": [
        20
      ],
      "name": "Luger_P08_Barrel_ArtilleryModel"
    },
    {
      "mesh": 8,
      "name": "defaultMaterial"
    }
  ],
  "samplers": [
    {
      "magFilter": 9729,
      "minFilter": 9987,
      "wrapS": 10497,
      "wrapT": 10497
    }
  ],
  "scene": 0,
  "scenes": [
    {
      "name": "OSG_Scene",
      "nodes": [
        0
      ]
    }
  ],
  "textures": [
    {
      "sampler": 0,
      "source": 0
    },
    {
      "sampler": 0,
      "source": 1
    },
    {
      "sampler": 0,
      "source": 2
    },
    {
      "sampler": 0,
      "source": 3
    },
    {
      "sampler": 0,
      "source": 4
    },
    {
      "sampler": 0,
      "source": 5
    }
  ]
}

