{
  "accessors": [
    {
      "bufferView": 2,
      "componentType": 5126,
      "count": 1741,
      "max": [
        6.3903598785400391,
        0.70473998785018921,
        5.5666699409484863
      ],
      "min": [
        -6.3903598785400391,
        -0.70473998785018921,
        -16.853780746459961
      ],
      "type": "VEC3"
    },
    {
      "bufferView": 2,
      "byteOffset": 20892,
      "componentType": 5126,
      "count": 1741,
      "max": [
        0.86678016185760498,
        0.99971383810043335,
        0.95946139097213745
      ],
      "min": [
        -0.86678016185760498,
        -0.99971383810043335,
        -1
      ],
      "type": "VEC3"
    },
    {
      "bufferView": 3,
      "componentType": 5126,
      "count": 1741,
      "max": [
        1,
        0.95946139097213745,
        0.99990928173065186,
        1
      ],
      "min": [
        -0.9990079402923584,
        -0.95946139097213745,
        -0.35925000905990601,
        -1
      ],
      "type": "VEC4"
    },
    {
      "bufferView": 1,
      "componentType": 5126,
      "count": 1741,
      "max": [
        0.97768998146057129,
        0.97237998247146606
      ],
      "min": [
        0.042259998619556427,
        0.027620000764727592
      ],
      "type": "VEC2"
    },
    {
      "bufferView": 0,
      "componentType": 5125,
      "count": 2232,
      "max": [
        1740
      ],
      "min": [
        0
      ],
      "type": "SCALAR"
    }
  ],
  "asset": {
    "extras": {
      "author": "PriceMore (https://sketchfab.com/PriceMore)",
      "license": "CC-BY-4.0 (http://creativecommons.org/licenses/by/4.0/)",
      "source": "https://sketchfab.com/3d-models/w011-double-axe-f368ff168ce04bf1b381e2cf2fbc9691",
      "title": "[W011] Double Axe"
    },
    "generator": "Sketchfab-4.97.1",
    "version": "2.0"
  },
  "bufferViews": [
    {
      "buffer": 0,
      "byteLength": 8928,
      "byteOffset": 0,
      "name": "floatBufferViews",
      "target": 34963
    },
    {
      "buffer": 0,
      "byteLength": 13928,
      "byteOffset": 8928,
      "byteStride": 8,
      "name": "floatBufferViews",
      "target": 34962
    },
    {
      "buffer": 0,
      "byteLength": 41784,
      "byteOffset": 22856,
      "byteStride": 12,
      "name": "floatBufferViews",
      "target": 34962
    },
    {
      "buffer": 0,
      "byteLength": 27856,
      "byteOffset": 64640,
      "byteStride": 16,
      "name": "floatBufferViews",
      "target": 34962
    }
  ],
  "buffers": [
    {
      "byteLength": 92496,
      "uri": "scene.bin"
    }
  ],
  "extensionsUsed": [
    "KHR_materials_unlit"
  ],
  "images": [
    {
      "uri": "textures/Material.001_baseColor.png"
    }
  ],
  "materials": [
    {
      "doubleSided": true,
      "emissiveFactor": [
        0,
        0,
        0
      ],
      "extensions": {
        "KHR_materials_unlit": {}
      },
      "name": "Material.001",
      "pbrMetallicRoughness": {
        "baseColorFactor": [
          1,
          1,
          1,
          1
        ],
        "baseColorTexture": {
          "index": 0,
          "texCoord": 0
        },
        "metallicFactor": 0,
        "roughnessFactor": 1
      }
    }
  ],
  "meshes": [
    {
      "name": "Cylinder.005_0",
      "primitives": [
        {
          "attributes": {
            "NORMAL": 1,
            "POSITION": 0,
            "TANGENT": 2,
            "TEXCOORD_0": 3
          },
          "indices": 4,
          "material": 0,
          "mode": 4
        }
      ]
    }
  ],
  "nodes": [
    {
      "children": [
        1
      ],
      "name": "RootNode (gltf orientation matrix)",
      "rotation": [
        -0.70710678118654746,
        -0,
        -0,
        0.70710678118654757
      ]
    },
    {
      "children": [
        2
      ],
      "matrix": [
        0.30099132657051086,
        0,
        0.95362687110900879,
        0,
        0,
        1,
        0,
        0,
        -0.95362687110900879,
        0,
        0.30099132657051086,
        0,
        -1.614570140838623,
        0,
        -1.1834782361984253,
        1
      ],
      "name": "RootNode (model correction matrix)"
    },
    {
      "children": [
        3
      ],
      "name": "Root"
    },
    {
      "children": [
        4
      ],
      "matrix": [
        0.30000000000000004,
        0,
        0,
        0,
        0,
        0.30000000000000004,
        0,
        0,
        0,
        0,
        0.30000000000000004,
        0,
        0,
        0,
        -0,
        1
      ],
      "name": "Cylinder.005"
    },
    {
      "mesh": 0,
      "name": "Cylinder.005_0"
    }
  ],
  "samplers": [
    {
      "magFilter": 9729,
      "minFilter": 9987,
      "wrapS": 10497,
      "wrapT": 10497
    }
  ],
  "scene": 0,
  "scenes": [
    {
      "name": "OSG_Scene",
      "nodes": [
        0
      ]
    }
  ],
  "textures": [
    {
      "sampler": 0,
      "source": 0
    }
  ]
}

